<?xml version="1.0" encoding="utf-8"?><!-- Uploaded to: SVG Repo, www.svgrepo.com, Generator: SVG Repo Mixer Tools -->
<svg fill="#000000" width="800px" height="800px" viewBox="0 0 24 24" id="armchair-4" data-name="Flat Color" xmlns="http://www.w3.org/2000/svg" class="icon flat-color"><path id="secondary" d="M5,16V6A4,4,0,0,1,9,2h6a4,4,0,0,1,4,4V16Zm13,5V18a1,1,0,0,0-2,0v3a1,1,0,0,0,2,0ZM8,21V18a1,1,0,0,0-2,0v3a1,1,0,0,0,2,0Z" style="fill: rgb(44, 169, 188);"></path><path id="primary" d="M18.84,9A3.13,3.13,0,0,0,16,12.17V15H8V12.17A3.13,3.13,0,0,0,5.16,9,3,3,0,0,0,4,14.82V18a1,1,0,0,0,1,1H19a1,1,0,0,0,1-1V14.82A3,3,0,0,0,18.84,9Z" style="fill: rgb(0, 0, 0);"></path></svg>